<svg xmlns="http://www.w3.org/2000/svg" viewBox="0 0 100 100">
  <g><path d="M21,17H38a0,0,0,0,1,0,0V45.92a0,0,0,0,1,0,0H21a7,7,0,0,1-7-7V24A7,7,0,0,1,21,17Z" style="fill:#ff4cb5"/>
  <rect x="38" y="17" width="24" height="28.92" style="fill:#ff8cd0"/>
  <path d="M62,17H79a7,7,0,0,1,7,7V38.92a7,7,0,0,1-7,7H62a0,0,0,0,1,0,0V17A0,0,0,0,1,62,17Z" style="fill:#ffccea"/></g>
  <g><path d="M21,54.08H38a0,0,0,0,1,0,0V83a0,0,0,0,1,0,0H21a7,7,0,0,1-7-7V61.08A7,7,0,0,1,21,54.08Z" style="fill:#ffa6da"/>
  <rect x="38" y="54.08" width="24" height="28.92" style="fill:#ff73c5"/>
  <path d="M62,54.08H79a7,7,0,0,1,7,7V76a7,7,0,0,1-7,7H62a0,0,0,0,1,0,0V54.08A0,0,0,0,1,62,54.08Z" style="fill:#ff0096"/></g>
  <path d="M78.51,73A6.54,6.54,0,0,0,70,72.42a6.62,6.62,0,0,0-.83.74,7.27,7.27,0,0,0-.65.84,6.39,6.39,0,0,0-1.29-1.42,6.16,6.16,0,0,0-1.84-1,6.66,6.66,0,0,0-3.3-.33,6.2,6.2,0,0,0-3,1.33,6.44,6.44,0,0,0-.5,9.58l3.93,3.94L66.43,90a3,3,0,0,0,4.17,0l3.93-3.93,3.93-3.94a6.41,6.41,0,0,0,1.9-4.53A6.49,6.49,0,0,0,78.51,73Z" style="fill:#ffccea"/>
  <path d="M28.61,50.57a6.44,6.44,0,0,0-4.13-1.89,6.38,6.38,0,0,0-5.2,2,6.4,6.4,0,0,0-.66.84,6.34,6.34,0,0,0-1.28-1.42,6.6,6.6,0,0,0-5.15-1.36,6.19,6.19,0,0,0-3,1.33,6.46,6.46,0,0,0-.5,9.58l3.94,3.94,3.93,3.93a2.95,2.95,0,0,0,4.16,0l3.93-3.93,3.94-3.94a6.46,6.46,0,0,0,0-9.09Z" style="fill:#e50087"/>
  <path d="M57.64,10.35a6.44,6.44,0,0,0-4.13-1.89,6.54,6.54,0,0,0-4.38,1.27,6.37,6.37,0,0,0-1.48,1.58,6.11,6.11,0,0,0-1.28-1.42,6.33,6.33,0,0,0-1.85-1,6.63,6.63,0,0,0-3.3-.32,6.28,6.28,0,0,0-3,1.33,6.46,6.46,0,0,0-.5,9.58l3.94,3.94,3.93,3.93a2.92,2.92,0,0,0,2.08.86,2.89,2.89,0,0,0,2.08-.86l3.94-3.93,3.93-3.94a6.46,6.46,0,0,0,0-9.09Z" style="fill:#b20069"/>
</svg>