<?xml version="1.0" encoding="utf-8"?>
<!-- Generator: Adobe Illustrator 26.0.3, SVG Export Plug-In . SVG Version: 6.00 Build 0)  -->
<svg version="1.1" id="Livello_1" xmlns="http://www.w3.org/2000/svg" xmlns:xlink="http://www.w3.org/1999/xlink" x="0px" y="0px"
	 viewBox="0 0 100 100" style="enable-background:new 0 0 100 100;" xml:space="preserve">
<style type="text/css">
	.st0{fill:#ECD5FF;}
	.st1{fill:#BB7BFF;}
	.st2{fill:#A049FC;}
	.st3{fill:#DDB7FF;}
	.st4{fill:#7C23CD;}
</style>
<path class="st0" d="M11.14,34.04v40.24c0,5.36,4.35,9.71,9.71,9.71h58.29c5.36,0,9.71-4.35,9.71-9.71V34.04H11.14z"/>
<circle class="st1" cx="31.28" cy="26.32" r="4.09"/>
<circle class="st2" cx="21.57" cy="26.32" r="4.09"/>
<rect x="23.29" y="42.71" class="st1" width="12.14" height="29.14"/>
<rect x="42.71" y="42.71" class="st3" width="34" height="29.14"/>
<path class="st3" d="M88.86,25.71c0-5.36-4.35-9.71-9.71-9.71H20.86c-5.36,0-9.71,4.35-9.71,9.71v8.33h77.71V25.71z M21.46,29.36
	c-1.68,0-3.04-1.36-3.04-3.04s1.36-3.04,3.04-3.04s3.04,1.36,3.04,3.04S23.14,29.36,21.46,29.36z M32.39,29.36
	c-1.68,0-3.04-1.36-3.04-3.04s1.36-3.04,3.04-3.04c1.68,0,3.04,1.36,3.04,3.04S34.07,29.36,32.39,29.36z"/>
<g>
	<path class="st2" d="M91.07,14.66c-2.47-2.47-6.48-2.47-8.96,0L56.58,40.19c2.14,0.55,4.1,1.65,5.7,3.26
		c1.63,1.63,2.71,3.62,3.25,5.71l25.53-25.53C93.55,21.15,93.55,17.13,91.07,14.66z"/>
	<path class="st4" d="M57.68,47.67c-3.49-3.49-9.18-3.49-12.67,0c-3.1,3.1-4.14,13.08-4.32,15.04c-0.05,0.53,0.14,1.05,0.52,1.43
		c0.34,0.34,0.79,0.53,1.27,0.53c0.05,0,0.11,0,0.16-0.01c1.97-0.18,11.94-1.22,15.04-4.32C61.18,56.85,61.18,51.17,57.68,47.67z"/>
</g>
</svg>
